<svg xmlns="http://www.w3.org/2000/svg" xmlns:xlink="http://www.w3.org/1999/xlink" width="4320" zoomAndPan="magnify" viewBox="0 0 3240 809.999993" height="1080" preserveAspectRatio="xMidYMid meet" version="1.0"><defs><g/></defs><path stroke-linecap="butt" transform="matrix(9.434507, 0, 0, 9.434507, -33.676808, -33.639097)" fill="none" stroke-linejoin="miter" d="M 14.897217 71.999907 L 14.897217 14.411693 L 37.962065 14.411693 L 37.962065 25.608539 L 26.486986 25.608539 L 26.486986 34.791915 L 37.356741 34.791915 L 37.356741 45.85751 L 26.486986 45.85751 L 26.486986 71.999907 Z M 55.319805 72.540227 C 51.522243 72.540227 48.919182 71.279894 47.511451 68.758813 C 46.10372 66.226967 45.399854 62.614894 45.399854 57.922181 C 45.399854 54.080731 45.902083 51.134018 46.905713 49.082457 C 47.909756 47.020131 49.306722 45.508476 51.096611 44.54832 C 52.886086 43.587751 55.6146 42.523671 59.281326 41.356083 L 62.489711 40.292003 L 62.489711 35.250256 C 62.489711 33.962596 62.233421 32.974699 61.720427 32.287395 C 61.207434 31.588912 60.596313 31.239464 59.887065 31.239464 C 59.254 31.239464 58.702914 31.528877 58.233809 32.107289 C 57.764289 32.685701 57.529943 33.465749 57.529943 34.448263 L 57.529943 37.394561 L 46.136429 37.394561 L 46.136429 35.790576 C 46.136429 30.966612 47.265926 27.529264 49.524921 25.477703 C 51.783915 23.414962 55.46182 22.383592 60.558221 22.383592 C 64.61787 22.383592 67.918999 23.447671 70.46161 25.57583 C 73.0154 27.692809 74.292295 30.694175 74.292295 34.579099 L 74.292295 71.999907 L 62.637109 71.999907 L 62.637109 66.172314 C 62.047932 68.180401 61.114689 69.746295 59.837794 70.87041 C 58.572078 71.983759 57.065806 72.540227 55.319805 72.540227 Z M 59.952483 63.422269 C 60.84722 63.422269 61.480285 63.056673 61.851264 62.325481 C 62.233421 61.583524 62.424293 60.672225 62.424293 59.591998 L 62.424293 45.923342 C 60.689057 46.588702 59.40678 47.439966 58.577461 48.476718 C 57.748141 49.502706 57.333275 50.926999 57.333275 52.749183 L 57.333275 59.051678 C 57.333275 61.965268 58.206482 63.422269 59.952483 63.422269 Z M 83.744382 22.923913 L 95.219462 22.923913 L 95.219462 28.62067 C 95.753986 26.514455 96.665285 24.948147 97.952945 23.922574 C 99.251784 22.896586 101.090529 22.383592 103.469595 22.383592 C 105.39032 22.383592 107.054341 22.819989 108.462486 23.693196 C 109.870217 24.566404 110.863082 25.761319 111.441494 27.278357 C 112.423593 25.57583 113.514999 24.337026 114.715711 23.56236 C 115.926774 22.776515 117.607356 22.383592 119.757459 22.383592 C 123.598909 22.383592 126.266974 23.556978 127.762067 25.90292 C 129.267925 28.249277 130.021061 31.659713 130.021061 36.134228 L 129.873664 71.999907 L 118.087641 71.999907 L 118.087641 35.921412 C 118.087641 32.756501 117.280266 31.174046 115.665101 31.174046 C 114.551752 31.174046 113.749759 31.719748 113.258709 32.811154 C 112.767659 33.90256 112.522134 35.212164 112.522134 36.739966 L 112.522134 71.999907 L 100.784969 71.999907 L 100.784969 35.921412 C 100.784969 34.535211 100.637571 33.422275 100.343189 32.581777 C 100.048394 31.730513 99.43189 31.305296 98.493265 31.305296 C 97.292967 31.305296 96.447086 31.899855 95.956036 33.089388 C 95.464987 34.268156 95.219462 35.68127 95.219462 37.329143 L 95.219462 71.999907 L 83.744382 71.999907 Z M 153.278437 72.540227 C 148.22551 72.540227 144.602259 71.15444 142.409096 68.382452 C 140.226285 65.610463 139.134879 61.474218 139.134879 55.974129 L 139.134879 36.265064 C 139.134879 31.747075 140.428335 28.30393 143.014421 25.936043 C 145.611685 23.567743 149.234936 22.383592 153.884176 22.383592 C 163.313076 22.383592 168.02732 27.010888 168.02732 36.265064 L 168.02732 39.817101 C 168.02732 43.396879 167.983846 46.299703 167.896484 48.525989 L 150.872045 48.525989 L 150.872045 58.053017 C 150.872045 59.755544 151.046769 61.087092 151.395804 62.047247 C 151.756017 63.007817 152.519918 63.487687 153.687507 63.487687 C 154.582245 63.487687 155.21531 63.220219 155.586288 62.685695 C 155.968446 62.150757 156.192027 61.539636 156.257445 60.852332 C 156.323277 60.153849 156.355986 59.133658 156.355986 57.791345 L 156.355986 53.027416 L 168.02732 53.027416 L 168.02732 55.843293 C 168.02732 61.56158 166.919767 65.774009 164.704246 68.480579 C 162.499905 71.187149 158.691164 72.540227 153.278437 72.540227 Z M 156.355986 42.698396 L 156.355986 36.3959 C 156.355986 32.860425 155.488161 31.09248 153.752925 31.09248 C 151.777961 31.09248 150.790065 32.860425 150.790065 36.3959 L 150.790065 42.698396 Z M 189.289444 72.540227 C 185.131668 72.540227 182.032589 71.077843 179.991793 68.153074 C 177.961762 65.217541 176.946953 60.775735 176.946953 54.82807 L 176.946953 30.028401 C 176.946953 24.702622 178.131104 20.681066 180.49899 17.96373 C 182.867291 15.23563 186.397798 13.871373 191.090097 13.871373 C 194.888073 13.871373 197.834372 14.629892 199.929821 16.146929 C 202.036036 17.663552 203.493037 19.879073 204.300413 22.793076 C 205.108202 25.695901 205.51189 29.428045 205.51189 33.989922 L 194.249626 33.989922 L 194.249626 28.816924 C 194.249626 27.431137 194.058754 26.361675 193.676597 25.608539 C 193.294853 24.844638 192.612517 24.46248 191.630418 24.46248 C 189.436841 24.46248 188.340053 25.892155 188.340053 28.751506 L 188.340053 56.645286 C 188.340053 58.391286 188.564048 59.71207 189.01121 60.606807 C 189.458785 61.501544 190.244631 61.94912 191.368745 61.94912 C 192.481681 61.94912 193.262144 61.501544 193.709306 60.606807 C 194.156881 59.71207 194.380462 58.391286 194.380462 56.645286 L 194.380462 48.395153 L 191.302913 48.395153 L 191.302913 38.475202 L 205.381053 38.475202 L 205.381053 71.999907 L 200.748376 71.999907 L 198.800324 67.170975 C 196.748763 70.750338 193.578469 72.540227 189.289444 72.540227 Z M 223.60993 72.540227 C 219.812369 72.540227 217.209722 71.279894 215.801991 68.758813 C 214.393845 66.226967 213.68998 62.614894 213.68998 57.922181 C 213.68998 54.080731 214.192209 51.134018 215.196252 49.082457 C 216.200296 47.020131 217.596848 45.508476 219.386737 44.54832 C 221.176626 43.587751 223.904726 42.523671 227.571452 41.356083 L 230.779837 40.292003 L 230.779837 35.250256 C 230.779837 33.962596 230.523547 32.974699 230.010553 32.287395 C 229.497559 31.588912 228.886438 31.239464 228.17719 31.239464 C 227.544125 31.239464 226.99304 31.528877 226.523934 32.107289 C 226.054828 32.685701 225.820068 33.465749 225.820068 34.448263 L 225.820068 37.394561 L 214.426555 37.394561 L 214.426555 35.790576 C 214.426555 30.966612 215.556466 27.529264 217.81546 25.477703 C 220.074455 23.414962 223.751946 22.383592 228.848347 22.383592 C 232.907995 22.383592 236.209125 23.447671 238.75215 25.57583 C 241.305526 27.692809 242.582421 30.694175 242.582421 34.579099 L 242.582421 71.999907 L 230.927234 71.999907 L 230.927234 66.172314 C 230.338058 68.180401 229.404815 69.746295 228.128334 70.87041 C 226.862204 71.983759 225.356345 72.540227 223.60993 72.540227 Z M 228.242608 63.422269 C 229.13776 63.422269 229.770411 63.056673 230.141803 62.325481 C 230.523547 61.583524 230.714419 60.672225 230.714419 59.591998 L 230.714419 45.923342 C 228.979183 46.588702 227.696905 47.439966 226.867586 48.476718 C 226.038267 49.502706 225.6234 50.926999 225.6234 52.749183 L 225.6234 59.051678 C 225.6234 61.965268 226.496608 63.422269 228.242608 63.422269 Z M 252.034508 22.923913 L 263.509587 22.923913 L 263.509587 28.62067 C 264.044111 26.514455 264.95541 24.948147 266.24307 23.922574 C 267.541909 22.896586 269.380655 22.383592 271.75972 22.383592 C 273.680445 22.383592 275.34488 22.819989 276.752612 23.693196 C 278.160343 24.566404 279.153621 25.761319 279.732033 27.278357 C 280.714133 25.57583 281.805125 24.337026 283.005836 23.56236 C 284.216899 22.776515 285.897896 22.383592 288.047584 22.383592 C 291.889034 22.383592 294.557099 23.556978 296.052192 25.90292 C 297.558465 28.249277 298.311187 31.659713 298.311187 36.134228 L 298.164203 71.999907 L 286.377767 71.999907 L 286.377767 35.921412 C 286.377767 32.756501 285.570392 31.174046 283.955227 31.174046 C 282.841877 31.174046 282.039884 31.719748 281.548835 32.811154 C 281.057785 33.90256 280.81226 35.212164 280.81226 36.739966 L 280.81226 71.999907 L 269.075094 71.999907 L 269.075094 35.921412 C 269.075094 34.535211 268.927696 33.422275 268.633315 32.581777 C 268.338519 31.730513 267.722016 31.305296 266.78339 31.305296 C 265.583093 31.305296 264.737212 31.899855 264.246162 33.089388 C 263.755112 34.268156 263.509587 35.68127 263.509587 37.329143 L 263.509587 71.999907 L 252.034508 71.999907 Z M 321.568563 72.540227 C 316.515636 72.540227 312.892798 71.15444 310.699222 68.382452 C 308.51641 65.610463 307.425004 61.474218 307.425004 55.974129 L 307.425004 36.265064 C 307.425004 31.747075 308.718461 28.30393 311.30496 25.936043 C 313.902224 23.567743 317.525476 22.383592 322.174301 22.383592 C 331.603202 22.383592 336.317445 27.010888 336.317445 36.265064 L 336.317445 39.817101 C 336.317445 43.396879 336.273971 46.299703 336.186609 48.525989 L 319.16217 48.525989 L 319.16217 58.053017 C 319.16217 59.755544 319.336895 61.087092 319.685929 62.047247 C 320.046143 63.007817 320.810044 63.487687 321.977633 63.487687 C 322.872784 63.487687 323.505435 63.220219 323.876828 62.685695 C 324.258571 62.150757 324.482566 61.539636 324.547984 60.852332 C 324.613403 60.153849 324.646112 59.133658 324.646112 57.791345 L 324.646112 53.027416 L 336.317445 53.027416 L 336.317445 55.843293 C 336.317445 61.56158 335.209892 65.774009 332.994372 68.480579 C 330.79003 71.187149 326.981289 72.540227 321.568563 72.540227 Z M 324.646112 42.698396 L 324.646112 36.3959 C 324.646112 32.860425 323.778287 31.09248 322.043465 31.09248 C 320.068087 31.09248 319.080191 32.860425 319.080191 36.3959 L 319.080191 42.698396 Z M 324.646112 42.698396 " stroke="#000000" stroke-width="13.41112" stroke-opacity="1" stroke-miterlimit="4"/><g fill="#ff0000" fill-opacity="1"><g transform="translate(82.780388, 645.64541)"><g><path d="M 24.03125 0 L 24.03125 -543.390625 L 241.640625 -543.390625 L 241.640625 -437.75 L 133.46875 -437.75 L 133.46875 -351.078125 L 235.953125 -351.078125 L 235.953125 -246.703125 L 133.46875 -246.703125 L 133.46875 0 Z M 24.03125 0 "/></g></g></g><g fill="#ff0000" fill-opacity="1"><g transform="translate(381.984675, 645.64541)"><g><path d="M 106.265625 5.0625 C 70.421875 5.0625 45.859375 -6.847656 32.578125 -30.671875 C 19.296875 -54.503906 12.65625 -88.5625 12.65625 -132.84375 C 12.65625 -169.113281 17.398438 -196.945312 26.890625 -216.34375 C 36.378906 -235.738281 49.554688 -249.96875 66.421875 -259.03125 C 83.285156 -268.101562 109.007812 -278.125 143.59375 -289.09375 L 173.953125 -299.203125 L 173.953125 -346.65625 C 173.953125 -358.882812 171.523438 -368.265625 166.671875 -374.796875 C 161.828125 -381.335938 156.03125 -384.609375 149.28125 -384.609375 C 143.382812 -384.609375 138.21875 -381.863281 133.78125 -376.375 C 129.351562 -370.894531 127.140625 -363.519531 127.140625 -354.25 L 127.140625 -326.40625 L 19.609375 -326.40625 L 19.609375 -341.59375 C 19.609375 -387.132812 30.253906 -419.601562 51.546875 -439 C 72.847656 -458.40625 107.535156 -468.109375 155.609375 -468.109375 C 193.984375 -468.109375 225.191406 -458.09375 249.234375 -438.0625 C 273.273438 -418.03125 285.296875 -389.671875 285.296875 -352.984375 L 285.296875 0 L 175.21875 0 L 175.21875 -55.03125 C 169.738281 -36.050781 160.988281 -21.289062 148.96875 -10.75 C 136.945312 -0.207031 122.710938 5.0625 106.265625 5.0625 Z M 149.921875 -80.96875 C 158.359375 -80.96875 164.367188 -84.445312 167.953125 -91.40625 C 171.535156 -98.363281 173.328125 -106.90625 173.328125 -117.03125 L 173.328125 -246.078125 C 156.878906 -239.742188 144.753906 -231.726562 136.953125 -222.03125 C 129.148438 -212.332031 125.25 -198.835938 125.25 -181.546875 L 125.25 -122.09375 C 125.25 -94.675781 133.472656 -80.96875 149.921875 -80.96875 Z M 149.921875 -80.96875 "/></g></g></g><g fill="#ff0000" fill-opacity="1"><g transform="translate(734.323482, 645.64541)"><g><path d="M 22.140625 -463.046875 L 130.3125 -463.046875 L 130.3125 -409.28125 C 135.375 -429.101562 144.019531 -443.863281 156.25 -453.5625 C 168.476562 -463.257812 185.769531 -468.109375 208.125 -468.109375 C 226.25 -468.109375 241.953125 -463.992188 255.234375 -455.765625 C 268.523438 -447.546875 277.910156 -436.265625 283.390625 -421.921875 C 292.671875 -437.953125 303.003906 -449.65625 314.390625 -457.03125 C 325.773438 -464.414062 341.585938 -468.109375 361.828125 -468.109375 C 398.097656 -468.109375 423.296875 -457.035156 437.421875 -434.890625 C 451.554688 -412.753906 458.625 -380.597656 458.625 -338.421875 L 457.359375 0 L 346.015625 0 L 346.015625 -340.328125 C 346.015625 -370.265625 338.425781 -385.234375 323.25 -385.234375 C 312.707031 -385.234375 305.113281 -380.066406 300.46875 -369.734375 C 295.832031 -359.410156 293.515625 -347.078125 293.515625 -332.734375 L 293.515625 0 L 182.8125 0 L 182.8125 -340.328125 C 182.8125 -353.398438 181.441406 -363.941406 178.703125 -371.953125 C 175.960938 -379.960938 170.164062 -383.96875 161.3125 -383.96875 C 149.925781 -383.96875 141.910156 -378.378906 137.265625 -367.203125 C 132.628906 -356.035156 130.3125 -342.648438 130.3125 -327.046875 L 130.3125 0 L 22.140625 0 Z M 22.140625 -463.046875 "/></g></g></g><g fill="#ff0000" fill-opacity="1"><g transform="translate(1260.61475, 645.64541)"><g><path d="M 151.8125 5.0625 C 104.164062 5.0625 70.007812 -8.007812 49.34375 -34.15625 C 28.675781 -60.300781 18.34375 -99.3125 18.34375 -151.1875 L 18.34375 -337.171875 C 18.34375 -379.753906 30.570312 -412.222656 55.03125 -434.578125 C 79.488281 -456.929688 113.648438 -468.109375 157.515625 -468.109375 C 246.492188 -468.109375 290.984375 -424.460938 290.984375 -337.171875 L 290.984375 -303.640625 C 290.984375 -269.898438 290.5625 -242.488281 289.71875 -221.40625 L 129.046875 -221.40625 L 129.046875 -131.578125 C 129.046875 -115.546875 130.734375 -103 134.109375 -93.9375 C 137.484375 -84.875 144.648438 -80.34375 155.609375 -80.34375 C 164.046875 -80.34375 170.054688 -82.867188 173.640625 -87.921875 C 177.222656 -92.984375 179.332031 -98.78125 179.96875 -105.3125 C 180.601562 -111.851562 180.921875 -121.453125 180.921875 -134.109375 L 180.921875 -179.015625 L 290.984375 -179.015625 L 290.984375 -152.453125 C 290.984375 -98.472656 280.546875 -58.722656 259.671875 -33.203125 C 238.796875 -7.691406 202.84375 5.0625 151.8125 5.0625 Z M 180.921875 -276.4375 L 180.921875 -335.90625 C 180.921875 -369.21875 172.695312 -385.875 156.25 -385.875 C 137.6875 -385.875 128.40625 -369.21875 128.40625 -335.90625 L 128.40625 -276.4375 Z M 180.921875 -276.4375 "/></g></g></g><g fill="#ff0000" fill-opacity="1"><g transform="translate(1616.116259, 645.64541)"><g><path d="M 136 5.0625 C 96.78125 5.0625 67.578125 -8.75 48.390625 -36.375 C 29.203125 -64 19.609375 -105.851562 19.609375 -161.9375 L 19.609375 -396 C 19.609375 -446.175781 30.78125 -484.125 53.125 -509.84375 C 75.476562 -535.570312 108.796875 -548.4375 153.078125 -548.4375 C 188.929688 -548.4375 216.765625 -541.269531 236.578125 -526.9375 C 256.398438 -512.601562 270.109375 -491.726562 277.703125 -464.3125 C 285.296875 -436.894531 289.09375 -401.679688 289.09375 -358.671875 L 182.8125 -358.671875 L 182.8125 -407.375 C 182.8125 -420.445312 181.019531 -430.566406 177.4375 -437.734375 C 173.851562 -444.910156 167.421875 -448.5 158.140625 -448.5 C 137.472656 -448.5 127.140625 -435.003906 127.140625 -408.015625 L 127.140625 -144.859375 C 127.140625 -128.410156 129.25 -115.96875 133.46875 -107.53125 C 137.6875 -99.101562 145.066406 -94.890625 155.609375 -94.890625 C 166.148438 -94.890625 173.53125 -99.101562 177.75 -107.53125 C 181.96875 -115.96875 184.078125 -128.410156 184.078125 -144.859375 L 184.078125 -222.671875 L 154.984375 -222.671875 L 154.984375 -316.296875 L 287.828125 -316.296875 L 287.828125 0 L 244.171875 0 L 225.828125 -45.546875 C 206.429688 -11.804688 176.488281 5.0625 136 5.0625 Z M 136 5.0625 "/></g></g></g><g fill="#ff0000" fill-opacity="1"><g transform="translate(1969.720101, 645.64541)"><g><path d="M 106.265625 5.0625 C 70.421875 5.0625 45.859375 -6.847656 32.578125 -30.671875 C 19.296875 -54.503906 12.65625 -88.5625 12.65625 -132.84375 C 12.65625 -169.113281 17.398438 -196.945312 26.890625 -216.34375 C 36.378906 -235.738281 49.554688 -249.96875 66.421875 -259.03125 C 83.285156 -268.101562 109.007812 -278.125 143.59375 -289.09375 L 173.953125 -299.203125 L 173.953125 -346.65625 C 173.953125 -358.882812 171.523438 -368.265625 166.671875 -374.796875 C 161.828125 -381.335938 156.03125 -384.609375 149.28125 -384.609375 C 143.382812 -384.609375 138.21875 -381.863281 133.78125 -376.375 C 129.351562 -370.894531 127.140625 -363.519531 127.140625 -354.25 L 127.140625 -326.40625 L 19.609375 -326.40625 L 19.609375 -341.59375 C 19.609375 -387.132812 30.253906 -419.601562 51.546875 -439 C 72.847656 -458.40625 107.535156 -468.109375 155.609375 -468.109375 C 193.984375 -468.109375 225.191406 -458.09375 249.234375 -438.0625 C 273.273438 -418.03125 285.296875 -389.671875 285.296875 -352.984375 L 285.296875 0 L 175.21875 0 L 175.21875 -55.03125 C 169.738281 -36.050781 160.988281 -21.289062 148.96875 -10.75 C 136.945312 -0.207031 122.710938 5.0625 106.265625 5.0625 Z M 149.921875 -80.96875 C 158.359375 -80.96875 164.367188 -84.445312 167.953125 -91.40625 C 171.535156 -98.363281 173.328125 -106.90625 173.328125 -117.03125 L 173.328125 -246.078125 C 156.878906 -239.742188 144.753906 -231.726562 136.953125 -222.03125 C 129.148438 -212.332031 125.25 -198.835938 125.25 -181.546875 L 125.25 -122.09375 C 125.25 -94.675781 133.472656 -80.96875 149.921875 -80.96875 Z M 149.921875 -80.96875 "/></g></g></g><g fill="#ff0000" fill-opacity="1"><g transform="translate(2322.058834, 645.64541)"><g><path d="M 22.140625 -463.046875 L 130.3125 -463.046875 L 130.3125 -409.28125 C 135.375 -429.101562 144.019531 -443.863281 156.25 -453.5625 C 168.476562 -463.257812 185.769531 -468.109375 208.125 -468.109375 C 226.25 -468.109375 241.953125 -463.992188 255.234375 -455.765625 C 268.523438 -447.546875 277.910156 -436.265625 283.390625 -421.921875 C 292.671875 -437.953125 303.003906 -449.65625 314.390625 -457.03125 C 325.773438 -464.414062 341.585938 -468.109375 361.828125 -468.109375 C 398.097656 -468.109375 423.296875 -457.035156 437.421875 -434.890625 C 451.554688 -412.753906 458.625 -380.597656 458.625 -338.421875 L 457.359375 0 L 346.015625 0 L 346.015625 -340.328125 C 346.015625 -370.265625 338.425781 -385.234375 323.25 -385.234375 C 312.707031 -385.234375 305.113281 -380.066406 300.46875 -369.734375 C 295.832031 -359.410156 293.515625 -347.078125 293.515625 -332.734375 L 293.515625 0 L 182.8125 0 L 182.8125 -340.328125 C 182.8125 -353.398438 181.441406 -363.941406 178.703125 -371.953125 C 175.960938 -379.960938 170.164062 -383.96875 161.3125 -383.96875 C 149.925781 -383.96875 141.910156 -378.378906 137.265625 -367.203125 C 132.628906 -356.035156 130.3125 -342.648438 130.3125 -327.046875 L 130.3125 0 L 22.140625 0 Z M 22.140625 -463.046875 "/></g></g></g><g fill="#ff0000" fill-opacity="1"><g transform="translate(2848.350035, 645.64541)"><g><path d="M 151.8125 5.0625 C 104.164062 5.0625 70.007812 -8.007812 49.34375 -34.15625 C 28.675781 -60.300781 18.34375 -99.3125 18.34375 -151.1875 L 18.34375 -337.171875 C 18.34375 -379.753906 30.570312 -412.222656 55.03125 -434.578125 C 79.488281 -456.929688 113.648438 -468.109375 157.515625 -468.109375 C 246.492188 -468.109375 290.984375 -424.460938 290.984375 -337.171875 L 290.984375 -303.640625 C 290.984375 -269.898438 290.5625 -242.488281 289.71875 -221.40625 L 129.046875 -221.40625 L 129.046875 -131.578125 C 129.046875 -115.546875 130.734375 -103 134.109375 -93.9375 C 137.484375 -84.875 144.648438 -80.34375 155.609375 -80.34375 C 164.046875 -80.34375 170.054688 -82.867188 173.640625 -87.921875 C 177.222656 -92.984375 179.332031 -98.78125 179.96875 -105.3125 C 180.601562 -111.851562 180.921875 -121.453125 180.921875 -134.109375 L 180.921875 -179.015625 L 290.984375 -179.015625 L 290.984375 -152.453125 C 290.984375 -98.472656 280.546875 -58.722656 259.671875 -33.203125 C 238.796875 -7.691406 202.84375 5.0625 151.8125 5.0625 Z M 180.921875 -276.4375 L 180.921875 -335.90625 C 180.921875 -369.21875 172.695312 -385.875 156.25 -385.875 C 137.6875 -385.875 128.40625 -369.21875 128.40625 -335.90625 L 128.40625 -276.4375 Z M 180.921875 -276.4375 "/></g></g></g></svg>